# xmcd CD database file
#
# Track frame offsets:
#	150
#	18687
#	41507
#	70600
#
# Disc length: 1188 seconds
#
# Revision: 0
# Processed by: cddbd v1.5PL3 Copyright (c) Steve Scherf et al.
# Submitted via: CDex 1.51
#
DISCID=2c04a204
DTITLE=Wish* - ISM
DYEAR=2002
DGENRE=JPop
TTITLE0=ISM
TTITLE1=DEPARTURES
TTITLE2=G-ISM-O
TTITLE3=ISM -tv mix-
EXTD=YEAR: 2002
EXTT0=
EXTT1=
EXTT2=
EXTT3=
PLAYORDER=
